Genre:Animation 
Language:English
IMDb:http://www.imdb.com/title/tt1699114/
Source:DVD
Subtitles:Romana


Format : MPEG-4
Format profile : Base Media
Codec ID : isom
File size : 870 MiB
Duration : 1h 16mn
Overall bit rate : 1 588 Kbps
Movie name : All.Star.Superman.2011.DvDRip.x264.Feel-Free


Video
Format settings, CABAC : Yes
Format settings, ReFrames : 4 frames
Format settings, GOP : M=4, N=32
Codec ID : avc1
Codec ID/Info : Advanced Video Coding
Duration : 1h 16mn
Bit rate mode : Variable
Bit rate : 1 252 Kbps
Width : 720 pixels
Height : 384 pixels
Display aspect ratio : 1.875
Frame rate mode : Constant
Frame rate : 23.976 fps
Color space : YUV
Chroma subsampling : 4:2:0
Bit depth : 8 bits
Scan type : Progressive
Bits/(Pixel*Frame) : 0.189
Stream size : 689 MiB (79%)
Writing library : x264

Audio
ID : 2
Format : AAC
Format/Info : Advanced Audio Codec
Format version : Version 4
Format profile : LC
Codec ID : 40
Duration : 1h 16mn
Bit rate mode : Variable
Bit rate : 324 Kbps
Channel(s) : 5 channels
Channel positions : Front: L C R, Side: L R
Sampling rate : 48.0 KHz
Stream size : 178 MiB (20%)